<svg width="409" height="394" fill="none" xmlns="http://www.w3.org/2000/svg"><rect width="409" height="394" rx="21" fill="url(#a)"/><path fill-rule="evenodd" clip-rule="evenodd" d="M107 196.633v124.632H136.885l.665-71.404c.367-39.271 1.05-72.572 1.522-74 10.034-30.484 26.06-50.918 48.918-62.376 26.71-13.387 52.523-13.361 78.953.083 26.364 13.409 44.902 39.597 49.304 69.649l1.965 13.416h29.967l-1.121-12.502c-1.337-14.898-8.512-37.395-16.299-51.101-7.592-13.365-29.916-36.185-43.234-44.198-24.792-14.912-57.397-20.429-84.638-14.32-19.356 4.341-41.715 16.098-54.89 28.861l-10.91 10.568V72H107v124.633Zm102.123-59.808c-11.117 3.74-24.278 13.979-31.038 24.142-10.708 16.102-10.974 18.373-10.87 93.154l.092 67.144h29.955v-34.62c0-19.041.214-34.62.477-34.62.261 0 4.963 1.641 10.447 3.645 28.157 10.293 60.136-3.86 73.793-32.659 4.162-8.779 4.71-11.847 4.71-26.378 0-14.532-.548-17.6-4.71-26.379-5.981-12.611-16.933-23.982-28.975-30.083-11.448-5.801-31.947-7.364-43.881-3.346Zm34.698 34.336c19.152 13.126 16.963 42.692-3.938 53.17-14.768 7.403-31.948.964-39.279-14.719-12.981-27.769 18.254-55.559 43.217-38.451Z" fill="#fff"/><defs><linearGradient id="a" x1="204.5" y1="0" x2="204.5" y2="394" gradientUnits="userSpaceOnUse"><stop stop-color="#EF709B"/><stop offset="1" stop-color="#FA9372"/></linearGradient></defs></svg>
