<?xml version="1.0" encoding="UTF-8" standalone="no"?>
<!DOCTYPE svg PUBLIC "-//W3C//DTD SVG 1.1//EN" "http://www.w3.org/Graphics/SVG/1.1/DTD/svg11.dtd">
<svg xmlns="http://www.w3.org/2000/svg" version="1.1" viewBox="0.00 0.00 512.00 512.00"  width="53.87" height="43.61">
<path stroke="#f09994" stroke-width="2.00" fill="none" stroke-linecap="butt" vector-effect="non-scaling-stroke" d="
  M 89.23 213.96
  C 59.25 277.37 103.05 348.85 172.58 351.63
  C 182.07 352.01 190.55 350.42 198.44 345.94
  C 212.92 337.73 225.65 323.28 236.11 310.12
  C 256.36 284.64 274.30 257.33 293.69 231.17
  C 304.15 217.07 315.44 203.14 330.80 194.13
  C 332.14 193.35 334.43 192.53 335.97 192.51
  C 370.76 192.05 397.19 214.63 399.99 249.50
  C 404.33 303.70 344.74 338.29 299.57 307.86
  Q 294.19 304.23 291.84 303.61
  C 278.37 300.02 267.12 315.00 273.50 326.47
  Q 275.86 330.71 283.38 335.56
  C 341.63 373.16 420.60 338.60 431.20 270.01
  C 440.00 213.06 397.09 162.22 339.46 160.52
  C 329.65 160.23 320.60 161.96 312.53 166.78
  Q 301.12 173.59 290.77 184.78
  C 259.74 218.29 236.72 258.14 208.17 293.68
  Q 197.47 307.01 184.72 315.96
  C 181.23 318.41 177.69 319.89 173.17 319.69
  C 151.52 318.71 131.35 308.72 120.46 289.77
  C 108.61 269.16 108.68 240.36 121.38 220.12
  C 140.36 189.89 183.61 184.48 212.44 202.60
  C 215.23 204.35 218.49 207.36 221.05 208.93
  C 233.86 216.78 249.92 202.92 244.05 189.20
  Q 242.24 184.96 235.94 180.08
  C 214.97 163.82 187.53 157.75 161.25 161.34
  C 130.38 165.55 102.85 185.15 89.23 213.96"
/>
<path fill="#f44336" d="
  M 495.94 448.60
  A 47.40 47.40 0.0 0 1 448.54 496.00
  L 63.38 496.00
  A 47.40 47.40 0.0 0 1 15.98 448.60
  L 15.98 63.40
  A 47.40 47.40 0.0 0 1 63.38 16.00
  L 448.54 16.00
  A 47.40 47.40 0.0 0 1 495.94 63.40
  L 495.94 448.60
  Z
  M 89.23 213.96
  C 59.25 277.37 103.05 348.85 172.58 351.63
  C 182.07 352.01 190.55 350.42 198.44 345.94
  C 212.92 337.73 225.65 323.28 236.11 310.12
  C 256.36 284.64 274.30 257.33 293.69 231.17
  C 304.15 217.07 315.44 203.14 330.80 194.13
  C 332.14 193.35 334.43 192.53 335.97 192.51
  C 370.76 192.05 397.19 214.63 399.99 249.50
  C 404.33 303.70 344.74 338.29 299.57 307.86
  Q 294.19 304.23 291.84 303.61
  C 278.37 300.02 267.12 315.00 273.50 326.47
  Q 275.86 330.71 283.38 335.56
  C 341.63 373.16 420.60 338.60 431.20 270.01
  C 440.00 213.06 397.09 162.22 339.46 160.52
  C 329.65 160.23 320.60 161.96 312.53 166.78
  Q 301.12 173.59 290.77 184.78
  C 259.74 218.29 236.72 258.14 208.17 293.68
  Q 197.47 307.01 184.72 315.96
  C 181.23 318.41 177.69 319.89 173.17 319.69
  C 151.52 318.71 131.35 308.72 120.46 289.77
  C 108.61 269.16 108.68 240.36 121.38 220.12
  C 140.36 189.89 183.61 184.48 212.44 202.60
  C 215.23 204.35 218.49 207.36 221.05 208.93
  C 233.86 216.78 249.92 202.92 244.05 189.20
  Q 242.24 184.96 235.94 180.08
  C 214.97 163.82 187.53 157.75 161.25 161.34
  C 130.38 165.55 102.85 185.15 89.23 213.96
  Z"
/>
<path fill="#eceff1" d="
  M 89.23 213.96
  C 102.85 185.15 130.38 165.55 161.25 161.34
  C 187.53 157.75 214.97 163.82 235.94 180.08
  Q 242.24 184.96 244.05 189.20
  C 249.92 202.92 233.86 216.78 221.05 208.93
  C 218.49 207.36 215.23 204.35 212.44 202.60
  C 183.61 184.48 140.36 189.89 121.38 220.12
  C 108.68 240.36 108.61 269.16 120.46 289.77
  C 131.35 308.72 151.52 318.71 173.17 319.69
  C 177.69 319.89 181.23 318.41 184.72 315.96
  Q 197.47 307.01 208.17 293.68
  C 236.72 258.14 259.74 218.29 290.77 184.78
  Q 301.12 173.59 312.53 166.78
  C 320.60 161.96 329.65 160.23 339.46 160.52
  C 397.09 162.22 440.00 213.06 431.20 270.01
  C 420.60 338.60 341.63 373.16 283.38 335.56
  Q 275.86 330.71 273.50 326.47
  C 267.12 315.00 278.37 300.02 291.84 303.61
  Q 294.19 304.23 299.57 307.86
  C 344.74 338.29 404.33 303.70 399.99 249.50
  C 397.19 214.63 370.76 192.05 335.97 192.51
  C 334.43 192.53 332.14 193.35 330.80 194.13
  C 315.44 203.14 304.15 217.07 293.69 231.17
  C 274.30 257.33 256.36 284.64 236.11 310.12
  C 225.65 323.28 212.92 337.73 198.44 345.94
  C 190.55 350.42 182.07 352.01 172.58 351.63
  C 103.05 348.85 59.25 277.37 89.23 213.96
  Z"
/>
</svg>
